<svg width="32" height="32" viewBox="0 0 32 32" fill="none" xmlns="http://www.w3.org/2000/svg">
<g filter="url(#filter0_f_5_1191)">
<rect x="1" y="1" width="30" height="30" rx="4" fill="#30A34C" fill-opacity="0.2"/>
</g>
<g filter="url(#filter1_d_5_1191)">
<mask id="mask0_5_1191" style="mask-type:luminance" maskUnits="userSpaceOnUse" x="8" y="8" width="15" height="15">
<path d="M22.4997 22.5V9.16699H9.16669V22.5H22.4997Z" fill="white" stroke="white"/>
</mask>
<g mask="url(#mask0_5_1191)">
<path d="M21.1715 11.528L21.7078 9.60691L19.7867 9.07064" fill="#30A34C"/>
<path d="M21.1715 11.528L21.7078 9.60691L19.7867 9.07064" stroke="#30A34C" stroke-miterlimit="10"/>
<path d="M9.28021 16.4932L21.3613 9.85358L9.28021 16.4932Z" fill="#30A34C"/>
<path d="M9.28021 16.4932L21.3613 9.85358" stroke="#30A34C" stroke-miterlimit="10"/>
</g>
<path d="M10.5475 22.0801V18.7305H9.58661V22.0801H10.5475Z" fill="#30A34C" stroke="#30A34C"/>
<path d="M14.3918 22.0801V17.2129H13.4308V22.0801H14.3918Z" fill="#30A34C" stroke="#30A34C"/>
<path d="M18.2359 22.0801V15.6953H17.275V22.0801H18.2359Z" fill="#30A34C" stroke="#30A34C"/>
<path d="M22.0801 22.0801V14.1777H21.1192V22.0801H22.0801Z" fill="#30A34C" stroke="#30A34C"/>
<mask id="mask1_5_1191" style="mask-type:luminance" maskUnits="userSpaceOnUse" x="8" y="8" width="15" height="15">
<path d="M22.4997 22.5V9.16699H9.16669V22.5H22.4997Z" fill="white" stroke="white"/>
</mask>
<g mask="url(#mask1_5_1191)">
<path d="M11.0475 22.5801H9.08661V18.2301H11.0475V22.5801Z" fill="#30A34C" stroke="#30A34C" stroke-miterlimit="10"/>
<path d="M14.8917 22.5801H12.9308V16.7126H14.8917V22.5801Z" fill="#30A34C" stroke="#30A34C" stroke-miterlimit="10"/>
<path d="M18.7359 22.5801H16.775V15.1952H18.7359V22.5801Z" fill="#30A34C" stroke="#30A34C" stroke-miterlimit="10"/>
<path d="M22.5801 22.5801H20.6192V13.6777H22.5801V22.5801Z" fill="#30A34C" stroke="#30A34C" stroke-miterlimit="10"/>
<path d="M11.0475 22.5801H21.5997H11.0475Z" fill="#30A34C"/>
<path d="M11.0475 22.5801H21.5997" stroke="#30A34C" stroke-miterlimit="10"/>
</g>
</g>
<defs>
<filter id="filter0_f_5_1191" x="0" y="0" width="32" height="32" filterUnits="userSpaceOnUse" color-interpolation-filters="sRGB">
<feFlood flood-opacity="0" result="BackgroundImageFix"/>
<feBlend mode="normal" in="SourceGraphic" in2="BackgroundImageFix" result="shape"/>
<feGaussianBlur stdDeviation="0.5" result="effect1_foregroundBlur_5_1191"/>
</filter>
<filter id="filter1_d_5_1191" x="3.66669" y="6.66669" width="24.3333" height="24.3333" filterUnits="userSpaceOnUse" color-interpolation-filters="sRGB">
<feFlood flood-opacity="0" result="BackgroundImageFix"/>
<feColorMatrix in="SourceAlpha" type="matrix" values="0 0 0 0 0 0 0 0 0 0 0 0 0 0 0 0 0 0 127 0" result="hardAlpha"/>
<feOffset dy="3"/>
<feGaussianBlur stdDeviation="2.5"/>
<feComposite in2="hardAlpha" operator="out"/>
<feColorMatrix type="matrix" values="0 0 0 0 0 0 0 0 0 0 0 0 0 0 0 0 0 0 0.3 0"/>
<feBlend mode="normal" in2="BackgroundImageFix" result="effect1_dropShadow_5_1191"/>
<feBlend mode="normal" in="SourceGraphic" in2="effect1_dropShadow_5_1191" result="shape"/>
</filter>
</defs>
</svg>
